PathFileType	4	(X/Y/Z)	OpenSim_Sub04_EMGStiffKnee_Gyro.trc
DataRate	CameraRate	NumFrames	NumMarkers	Units	OrigDataRate	OrigDataStartFrame	OrigNumFrames
100	100	13	8	m	100	3104	8277
Frame#	Time	torso_imu_offset_imu	pelvis_imu_offset_imu	tibia_r_imu_offset_imu	femur_r_imu_offset_imu	tibia_l_imu_offset_imu	femur_l_imu_offset_imu	toes_r_imu_offset_imu	toes_l_imu_offset_imu
				X1	Y1	Z1	X2	Y2	Z2	X3	Y3	Z3	X4	Y4	Z4	X5	Y5	Z5	X6	Y6	Z6	X7	Y7	Z7	X8		Y8	Z8	

3104	31.03000000	0.16259930	-0.06399781	-0.10093433	-0.35401609	-0.24607293	0.06377444	-0.11573230	0.04669481	-1.35653897	-0.27375861	0.28942381	-0.32576072	-0.48732936	-0.60453544	0.87574229	0.05048150	-0.29368010	-0.31580441	-0.10322091	-1.33364390	-0.28764079	-0.10297076	-1.39910408	-0.26571360
3105	31.04000000	0.21581365	-0.06364822	-0.10478933	-0.34083727	-0.27740649	0.08488805	-0.07971391	0.04257961	-1.46091553	-0.24263905	0.33590819	-0.25810115	-0.91887728	-0.61646051	1.22713651	-0.00245626	-0.35895116	-0.21068187	-0.13489769	-1.45685052	-0.28662983	-0.49794585	-1.99622104	-0.48302543
3106	31.05000000	0.24371049	-0.06113645	-0.11261986	-0.34215408	-0.32100249	0.10648213	-0.02545043	0.03206263	-1.58316816	-0.22099583	0.37263344	-0.17198454	-1.36038402	-0.65441400	1.64908093	-0.05953910	-0.41409951	-0.11250811	-0.15077971	-1.60745901	-0.29184363	-0.28867047	-2.17331889	-0.57028441
3107	31.06000000	0.26400229	-0.07690474	-0.12180771	-0.34925227	-0.37094743	0.12511380	0.02293114	0.01424612	-1.71234397	-0.17082277	0.41070868	-0.06922044	-1.85512651	-0.58181523	2.03644913	-0.08930871	-0.48244180	-0.02343468	-0.15722698	-1.79389270	-0.29953251	-0.60808664	-1.54407052	-0.00510741
3108	31.07000000	0.28084512	-0.10164420	-0.14317603	-0.36676046	-0.39965481	0.13765029	0.07442238	-0.01343125	-1.84614758	-0.11182734	0.45445435	0.05813791	-2.17957618	-0.55011607	2.06695291	-0.06050267	-0.58728367	0.05192284	-0.16871912	-2.03260545	-0.31028245	-0.55761797	-0.90143354	0.63585092
3109	31.08000000	0.30519213	-0.11824970	-0.18256605	-0.37818914	-0.40714535	0.14804729	0.12202471	-0.06963164	-1.99774008	-0.06530588	0.47358530	0.21202541	-1.74429315	-0.70390788	1.63253573	-0.03654248	-0.70675778	0.13064571	-0.16443691	-2.32373089	-0.33145194	-0.30827335	-1.10682745	0.68439749
3110	31.09000000	0.31520888	-0.11928076	-0.22231339	-0.36654085	-0.39802292	0.14007381	0.13831477	-0.13034732	-2.17961397	-0.02554050	0.46437621	0.39239546	-1.49463120	-0.58723080	1.09903230	-0.19343065	-0.78800646	0.22477957	-0.12256988	-2.67008425	-0.37051428	-0.63451936	-0.91610867	0.22308051
3111	31.10000000	0.29763859	-0.10989676	-0.24971875	-0.32289309	-0.36920748	0.10144546	0.16242334	-0.16333735	-2.36918004	0.05129602	0.46463386	0.58538301	-2.00491290	-0.30664356	0.82940282	-0.47501368	-0.73505239	0.32530452	-0.04702245	-3.08669475	-0.45432867	-1.36744457	-0.42823826	0.22381822
3112	31.11000000	0.27206762	-0.08898306	-0.26788686	-0.22959516	-0.31794891	0.05194609	0.27174448	-0.18754917	-2.52734314	0.20423592	0.49921085	0.78597727	-2.07245306	-0.31043558	0.83502916	-0.57022375	-0.55123336	0.37871372	-0.05275596	-3.59466274	-0.60861091	-1.36072872	-0.21436805	0.42989611
3113	31.12000000	0.24412018	-0.05281398	-0.27602592	-0.13678865	-0.28347300	0.00803682	0.40245459	-0.22556649	-2.63822954	0.38369205	0.57430325	1.02330093	-1.12148461	-0.67053962	0.88316829	-0.43015656	-0.40089741	0.38818535	-0.05481347	-4.21861492	-0.86363983	-0.60879941	-0.18311505	0.26020307
3114	31.13000000	0.22787689	-0.01120988	-0.27582533	-0.08495338	-0.28356611	-0.02304862	0.54552740	-0.28917913	-2.69621857	0.56544974	0.70187029	1.27781952	-0.37912924	-0.93461857	0.97536718	-0.24843437	-0.43349960	0.40374564	-0.00647952	-4.76622772	-1.16718703	-0.68016478	-0.16022152	0.17723847
3115	31.14000000	0.21954787	0.01144113	-0.26986349	-0.04471971	-0.27079533	-0.04132485	0.76693069	-0.38026385	-2.73403929	0.72123323	0.87998723	1.52488749	0.02967171	-0.72144659	1.10194312	-0.11922145	-0.54769667	0.39260534	0.08356868	-5.26948184	-1.43953145	-0.50040074	-0.10501813	0.08896031
3116	31.15000000	0.22852014	0.02932172	-0.26938831	-0.01156617	-0.24244782	-0.05756948	0.91426208	-0.47506983	-2.75994652	0.79462845	1.03270591	1.78003490	0.60167176	-0.58040232	1.11725334	-0.01426446	-0.58044859	0.36434062	0.25441116	-5.39125729	-1.65164144	-0.33253190	-0.15345207	0.03601578
